<?xml version="1.0" ?><svg id="Layer_1" style="enable-background:new 0 0 256 256;" version="1.1" viewBox="0 0 256 256" xml:space="preserve" xmlns="http://www.w3.org/2000/svg" xmlns:xlink="http://www.w3.org/1999/xlink"><style type="text/css">
	.st0{fill:#6BDDDD;}
	.st1{fill:#F9CFCF;}
	.st2{fill:#4671C6;}
	.st3{fill:#3762CC;}
	.st4{fill:#E0EBFC;}
	.st5{fill:#A4C9FF;}
	.st6{fill:#B9BEFC;}
	.st7{fill:#FFEA94;}
	.st8{fill:#F9A7A7;}
	.st9{fill:#FFEA92;}
	.st10{fill:#FFE164;}
	.st11{fill:#FFDC85;}
	.st12{fill:#EAA97D;}
	.st13{fill:#FFA730;}
</style><g><g><path class="st4" d="M67.405,187.598c-6.657,0-12.072,6.626-12.072,14.771c0,8.145,5.415,14.772,12.072,14.772h135.347v-29.543    H67.405z"/></g><g><path class="st2" d="M70.237,230.905c-0.614,0-1.222-0.028-1.827-0.069l-2.447,0.004c-12.845,0-23.295-12.786-23.295-28.503    s10.45-28.503,23.295-28.503H207c3.491,0,6.332,3.087,6.332,6.882c0,3.795-2.841,6.882-6.332,6.882H67.405    c-6.657,0-12.072,6.626-12.072,14.772c0,8.145,5.415,14.772,12.072,14.772H207c3.491,0,6.332,3.087,6.332,6.882    c0,3.795-2.841,6.882-6.332,6.882H70.237z"/></g><g><path class="st5" d="M207,173.834c0.778,0,1.521,0.16,2.209,0.44c0.034,0.014,0.069,0.025,0.104,0.04    c0.29,0.125,0.568,0.273,0.835,0.441c0.044,0.028,0.088,0.057,0.132,0.085c0.261,0.174,0.51,0.364,0.745,0.575    c0.033,0.03,0.064,0.063,0.098,0.094c0.24,0.226,0.469,0.465,0.675,0.727c0.001,0.002,0.002,0.003,0.003,0.005    c0.205,0.26,0.387,0.54,0.555,0.832c0.024,0.041,0.049,0.081,0.073,0.123c0.155,0.282,0.289,0.578,0.407,0.885    c0.022,0.058,0.043,0.115,0.064,0.174c0.11,0.311,0.201,0.63,0.269,0.96c0.01,0.051,0.018,0.103,0.027,0.153    c0.064,0.35,0.111,0.707,0.124,1.073h0.013V13.072c0-2.627-2.005-4.762-4.563-5.021l0,0V8h-0.51l0,0h-4.988l0,0H76.218v165.834    H207z"/></g><g><path class="st1" d="M207,187.598h-4.247v29.543H207c3.417,0,6.204,2.96,6.321,6.643h0.011v-43.069    C213.331,184.51,210.491,187.598,207,187.598z"/></g><g><path class="st1" d="M213.319,180.442c0.003,0.092,0.013,0.181,0.013,0.274v-0.274H213.319z"/></g><g><path class="st3" d="M207,232.905H70.237c-0.583,0-1.204-0.022-1.894-0.069l-2.376,0.004c-13.951,0-25.299-13.684-25.299-30.503    s11.348-30.503,25.295-30.503H207c4.594,0,8.332,3.984,8.332,8.882s-3.738,8.882-8.332,8.882H67.405    c-5.554,0-10.072,5.729-10.072,12.771c0,7.043,4.519,12.772,10.072,12.772H207c4.594,0,8.332,3.984,8.332,8.881    C215.332,228.921,211.594,232.905,207,232.905z M68.409,228.836c0.046,0,0.093,0.002,0.14,0.005    c0.559,0.039,1.121,0.064,1.688,0.064H207c2.389,0,4.332-2.19,4.332-4.883c0-2.691-1.943-4.881-4.332-4.881H67.405    c-7.759,0-14.072-7.524-14.072-16.772s6.313-16.771,14.072-16.771H207c2.389,0,4.332-2.19,4.332-4.882s-1.943-4.882-4.332-4.882    H65.964c-11.742,0-21.295,11.889-21.295,26.503c0,14.613,9.553,26.503,21.295,26.503l2.443-0.004    C68.408,228.836,68.409,228.836,68.409,228.836z"/></g><g><path class="st3" d="M202.752,219.142H67.405c-7.759,0-14.072-7.524-14.072-16.772s6.313-16.771,14.072-16.771h135.347    c1.104,0,2,0.896,2,2v29.544C204.752,218.246,203.856,219.142,202.752,219.142z M67.405,189.598    c-5.554,0-10.072,5.729-10.072,12.771c0,7.043,4.519,12.772,10.072,12.772h133.347v-25.544H67.405z"/></g><g><path class="st8" d="M183.424,139.023h-82.37c-6.249,0-11.315-5.066-11.315-11.315V47.456c0-6.249,5.066-11.315,11.315-11.315    h82.37c6.249,0,11.315,5.066,11.315,11.315v80.251C194.739,133.957,189.673,139.023,183.424,139.023z"/></g><g><path class="st8" d="M42.669,202.369c0-0.011-0.001-0.021-0.001-0.032L42.669,202.369L42.669,202.369z"/></g><g><path class="st8" d="M63.216,8c-11.348,0-20.547,9.199-20.547,20.547v173.79c0-14.578,8.993-26.628,20.547-28.298    c0.902-0.13,1.818-0.205,2.748-0.205h10.255V8H63.216z"/></g><g><path class="st3" d="M207,232.905H70.237c-0.583,0-1.204-0.022-1.894-0.069l-2.376,0.004c-13.951,0-25.298-13.684-25.298-30.503    s11.347-30.503,25.295-30.503H207c4.594,0,8.332,3.984,8.332,8.882s-3.738,8.882-8.332,8.882h-2.248v25.544H207    c4.594,0,8.332,3.984,8.332,8.881C215.332,228.921,211.594,232.905,207,232.905z M68.409,228.836c0.046,0,0.093,0.002,0.14,0.005    c0.559,0.039,1.121,0.064,1.688,0.064H207c2.389,0,4.332-2.19,4.332-4.883c0-2.691-1.943-4.881-4.332-4.881h-4.248    c-1.104,0-2-0.896-2-2v-29.544c0-1.104,0.896-2,2-2H207c2.389,0,4.332-2.19,4.332-4.882s-1.943-4.882-4.332-4.882H65.963    c-11.742,0-21.295,11.889-21.295,26.503c0,14.613,9.553,26.503,21.295,26.503l2.443-0.004    C68.408,228.836,68.409,228.836,68.409,228.836z"/></g><g><path class="st0" d="M76.218,199.017v47.362c0,1.357,1.686,1.985,2.574,0.959l9.903-11.448c0.574-0.664,1.6-0.677,2.191-0.029    l10.629,11.657c0.902,0.989,2.549,0.351,2.549-0.988v-47.514H76.218z"/></g><g><path class="st3" d="M213.332,225.784c-1.08,0-1.976-0.857-2.01-1.937c-0.082-2.595-2.021-4.706-4.322-4.706h-4.248    c-1.104,0-2-0.896-2-2v-29.544c0-1.104,0.896-2,2-2H207c2.389,0,4.332-2.19,4.332-4.882c0-1.104,0.896-2,2-2s2,0.896,2,2v43.068    C215.332,224.889,214.436,225.784,213.332,225.784z M204.752,215.142H207c1.589,0,3.071,0.467,4.332,1.282v-28.123    c-1.263,0.822-2.747,1.297-4.332,1.297h-2.248V215.142z"/></g><g><path class="st3" d="M213.332,182.716c-1.104,0-2-0.896-2-2l-0.011-0.2c-0.021-0.543,0.181-1.07,0.558-1.462    s0.897-0.612,1.44-0.612h0.013c1.104,0,2,0.896,2,2v0.274C215.332,181.82,214.436,182.716,213.332,182.716z"/></g><g><path class="st3" d="M183.423,141.022h-82.37c-7.342,0-13.315-5.973-13.315-13.314V47.456c0-7.342,5.973-13.314,13.315-13.314    h82.37c7.342,0,13.315,5.973,13.315,13.314v80.252C196.739,135.05,190.766,141.022,183.423,141.022z M101.054,38.142    c-5.136,0-9.315,4.179-9.315,9.314v80.252c0,5.136,4.179,9.314,9.315,9.314h82.37c5.137,0,9.315-4.179,9.315-9.314V47.456    c0-5.136-4.179-9.314-9.315-9.314H101.054z"/></g><g><path class="st3" d="M42.668,204.354c-0.911,0-1.684-0.601-1.922-1.438c0-0.001,0-0.001,0-0.002c0,0,0,0,0,0    c-0.044-0.157-0.07-0.321-0.075-0.492l0-0.024c0-0.021-0.001-0.044-0.001-0.061c0-1.104,0.896-2,2-2s2,0.896,2,2    c0,0.002,0,0.005,0,0.005c0,0.001,0,0.001,0,0.002v0.001c0,0.001,0,0.001,0,0.002c0,0,0,0.001,0,0.002v0.001    c0,0.001,0,0.001,0,0.002v0.001c0,0.001,0,0.002,0,0.003c0,0,0,0.001,0,0.003c0,0.001,0,0.001,0,0.001c0,0.001,0,0.002,0,0.002    c0,0.001,0,0.001,0,0.001c0,0.001,0,0.002,0,0.003l0,0c0,0.001,0,0.002,0,0.003v0.001c0,0.001,0,0.002,0,0.003l0,0    c0,0.001,0,0.002,0,0.003l0,0c-0.006,0.321-0.087,0.625-0.228,0.894c0,0,0,0.001,0,0.001c0,0.001-0.001,0.002-0.001,0.003l0,0    c-0.314,0.6-0.919,1.025-1.628,1.075l0,0c-0.002-0.001-0.005,0-0.004,0.001c-0.004-0.001-0.003-0.001-0.004,0c0,0-0.001,0-0.001,0    c-0.037,0.003-0.073,0.004-0.11,0.004c0,0-0.001,0-0.002,0C42.685,204.352,42.675,204.354,42.668,204.354z"/></g><g><path class="st3" d="M42.668,204.337c-1.104,0-2-0.896-2-2V28.547C40.668,16.114,50.783,6,63.215,6h13.003c1.104,0,2,0.896,2,2    v165.834c0,1.104-0.896,2-2,2H65.963c-0.79,0-1.617,0.063-2.461,0.185c-10.738,1.552-18.834,12.866-18.834,26.318    C44.668,203.441,43.773,204.337,42.668,204.337z M63.215,10c-10.227,0-18.547,8.32-18.547,18.547v157.331    c3.957-7.434,10.53-12.701,18.261-13.818c1.032-0.149,2.053-0.226,3.034-0.226h8.255V10H63.215z"/></g><g><path class="st3" d="M213.332,182.441c-1.076,0-1.972-0.852-2.011-1.927c-0.096-2.625-1.994-4.681-4.321-4.681H76.218    c-1.104,0-2-0.896-2-2V8c0-1.104,0.896-2,2-2h132.55c0.252,0,0.493,0.047,0.715,0.132c3.369,0.587,5.848,3.484,5.848,6.94v167.369    C215.332,181.546,214.436,182.441,213.332,182.441z M213.332,180.441h0.01H213.332z M78.218,171.834H207    c1.587,0,3.07,0.469,4.332,1.286V13.072c0-1.568-1.188-2.872-2.765-3.031c-0.084-0.009-0.166-0.022-0.247-0.041H78.218V171.834z"/></g><g><path class="st1" d="M128.697,46.138c-0.427-1.189-1.562-1.988-2.824-1.988h-7.083c-1.263,0-2.397,0.799-2.824,1.989    L98.723,94.337c-0.329,0.917-0.19,1.94,0.371,2.737c0.561,0.798,1.479,1.273,2.453,1.273h4.669c1.27,0,2.407-0.805,2.83-2.003    l2.809-7.978c0.141-0.4,0.521-0.669,0.943-0.669h18.992c0.423,0,0.803,0.269,0.943,0.668l2.809,7.979    c0.423,1.197,1.561,2.002,2.83,2.002h4.743c0.975,0,1.892-0.476,2.453-1.272s0.7-1.82,0.372-2.738L128.697,46.138z M121.38,61.199    c0.218-0.619,0.776-0.667,0.942-0.667c0.167,0,0.728,0.048,0.944,0.67l5.664,16.191c0.108,0.31,0.063,0.642-0.128,0.909    c-0.189,0.268-0.487,0.421-0.815,0.421h-11.379c-0.329,0-0.627-0.154-0.817-0.423c-0.189-0.269-0.235-0.6-0.126-0.909    L121.38,61.199z"/></g><g><path class="st9" d="M183.403,85.263c0.308-0.482,0.471-1.04,0.471-1.613v-4.092c0-1.654-1.346-3-3-3h-30.349    c-1.654,0-3,1.346-3,3v3.425c0,1.654,1.346,3,3,3h18.509c0.534,0,0.791,0.363,0.877,0.519c0.085,0.156,0.254,0.567-0.032,1.018    l-21.887,34.462c-0.306,0.481-0.467,1.037-0.467,1.607v4.093c0,1.654,1.346,3,3,3h30.349c1.654,0,3-1.346,3-3v-3.425    c0-1.654-1.346-3-3-3h-18.579c-0.534,0-0.791-0.363-0.877-0.52c-0.085-0.155-0.253-0.567,0.034-1.018L183.403,85.263z"/></g></g></svg>